<?xml version="1.0" encoding="UTF-8"?>
<svg version="1.1" viewBox="0 0 2048 1365" width="3000" height="2000" xmlns="http://www.w3.org/2000/svg">
<path transform="translate(0)" d="m0 0h2048v1365h-2048z" fill="#057542"/>
<path transform="translate(634,132)" d="m0 0h63l34 3 32 5 30 7 36 12 20 9 20 10 21 13 17 13 11 9 13 12 12 12 9 11 10 12 16 24 10 17 11 22 11 27 10 31 7 28 6 32 4 32 3 42v718h-319l-1-1-1-707-3-19-4-15-8-16-7-9-8-7-14-7-13-3h-22l-16 4-11 6-8 7-7 10-6 13-5 17-2 12-1 11-1 703-1 1h-318l-1-1v-713l1-23 4-38 5-28 8-32 10-30 11-26 13-25 11-18 12-17 11-14 12-14 16-17 8-7 12-11 17-13 14-10 21-13 27-14 27-11 27-9 28-7 27-5 34-4z" fill="#F2F2EF"/>
<path transform="translate(1430,132)" d="m0 0h55l31 3 28 5 28 7 32 11 20 9 16 8 20 11 24 16 17 13 11 9 10 9 8 7 26 26 7 8 12 14 8 10-2 4-17 12-19 14-18 13-38 28-18 13-19 14-18 13-19 14-18 13-19 14-18 13-38 28-2-1-5-12-8-15-9-11-10-9-15-8-15-4-10-1h-10l-14 2-15 5-12 8-9 10-9 17-5 17-3 19-1 13-1 144h107v287l-1 1h-106v280h-319v-698l2-26 4-30 6-31 8-30 9-26 11-26 8-17 13-23 13-20 10-14 11-14 12-14 12-13 19-19 8-7 13-11 19-14 20-13 21-12 25-12 29-11 24-7 26-6 33-5z" fill="#F2F2EF"/>
<path transform="translate(0)" d="m0 0h125v1l-19 3-20 6-16 8-13 8-11 9-6 5-7 8-10 13-10 18-7 19-4 18-1 9h-1z"/>
<path transform="translate(1923)" d="m0 0h125v125h-1l-3-19-6-20-8-16-8-13-9-11-5-6-8-7-13-10-18-10-19-7-18-4-9-1z"/>
<path transform="translate(2047,1240)" d="m0 0h1v125h-125v-1l19-3 20-6 16-8 13-8 10-8 7-6 7-8 10-13 10-18 7-19 4-18z"/>
<path transform="translate(0,1240)" d="m0 0h1l3 19 6 20 8 16 8 13 8 10 6 7 8 7 13 10 18 10 19 7 18 4 9 1v1h-125z"/>
</svg>
