<?xml version="1.0" encoding="UTF-8"?>
<svg version="1.1" viewBox="0 0 1200 1200" width="300" height="300" xmlns="http://www.w3.org/2000/svg">
<path transform="translate(0)" d="m0 0h1200v1200h-1200z" fill="#017444"/>
<path transform="translate(531,200)" d="m0 0h42l24 2 30 5 24 6 20 7 20 9 18 10 16 11 13 11 12 11 10 11 11 14 7 10 7-1 11-4 26-7 32-5 15-1h24l23 2 27 5 21 6 20 8 16 8 16 9 14 10 14 11 13 12 5 4 7 8 7 7 9 11 6 8-1 3-10 6-12 9-18 13-19 14-36 26-34 25-18 13-15 11-3 2-4-1-3-9-9-13-7-7-14-7-9-2h-16l-11 4-9 6-3 1-2 4-5 8-5 15-2 13-1 99h67l2 2-1 184h-67v179l-1 3-2 1h-228l-2-1-1-7v-499l-1-16-4-16-6-12-5-7-10-7-10-4-4-1h-20l-11 4-9 6-7 8-5 10-5 19-1 13-1 509-6 1h-224l-2-1v-515l2-32 4-28 6-27 9-27 10-23 7-12 6-11 12-17 8-10 9-10 5-6 8-7 7-7 11-9 18-13 21-12 19-9 24-9 28-7 28-5 15-2z" fill="#FFFDFE"/>
</svg>
